<svg xmlns="http://www.w3.org/2000/svg" xmlns:xlink="http://www.w3.org/1999/xlink" width="1110" height="720" viewBox="0 0 1110 720">
  <defs>
    <filter id="Ellipse_5" x="479" y="46" width="66" height="66" filterUnits="userSpaceOnUse">
      <feOffset input="SourceAlpha"/>
      <feGaussianBlur stdDeviation="5" result="blur"/>
      <feFlood flood-opacity="0.161"/>
      <feComposite operator="in" in2="blur"/>
      <feComposite in="SourceGraphic"/>
    </filter>
    <filter id="Ellipse_6" x="479" y="92" width="66" height="66" filterUnits="userSpaceOnUse">
      <feOffset input="SourceAlpha"/>
      <feGaussianBlur stdDeviation="5" result="blur-2"/>
      <feFlood flood-opacity="0.161"/>
      <feComposite operator="in" in2="blur-2"/>
      <feComposite in="SourceGraphic"/>
    </filter>
    <filter id="Ellipse_8" x="479" y="138" width="66" height="66" filterUnits="userSpaceOnUse">
      <feOffset input="SourceAlpha"/>
      <feGaussianBlur stdDeviation="5" result="blur-3"/>
      <feFlood flood-opacity="0.161"/>
      <feComposite operator="in" in2="blur-3"/>
      <feComposite in="SourceGraphic"/>
    </filter>
  </defs>
  <g id="Featured_Product" data-name="Featured Product" transform="translate(-405 -1628)">
    <g id="_01" data-name="01">
      <g id="img">
        <rect id="bg" width="255" height="210" transform="translate(405 1679)" fill="#f5f5f5"/>
      </g>
      <g id="text">
        <text id="Modern_Black_Blouse" data-name="Modern Black Blouse" transform="translate(434 1939)" fill="#23262a" font-size="16" font-family="Poppins-SemiBold, Poppins" font-weight="600" letter-spacing="0.1em"><tspan x="0" y="0">Modern Black Blouse</tspan></text>
        <text id="Category" transform="translate(497 1913)" fill="#616365" font-size="13" font-family="Poppins-Medium, Poppins" font-weight="500" letter-spacing="0.1em"><tspan x="0" y="0">Category</tspan></text>
        <text id="_35.00" data-name="$35.00" transform="translate(497 1996)" fill="#23262a" font-size="18" font-family="Poppins-SemiBold, Poppins" font-weight="600" letter-spacing="0.1em"><tspan x="0" y="0">$35.00</tspan></text>
        <g id="Group_2" data-name="Group 2" transform="translate(72 -246)">
          <path id="star" d="M14.421,18,8.911,13.96,3.3,17.851l2.14-6.488L0,7.224l6.832.03L9.088.806,11.17,7.312,18,7.466l-5.545,3.991Z" transform="translate(405 2196.194)" fill="#ff7373"/>
          <path id="star-2" data-name="star" d="M14.421,18,8.911,13.96,3.3,17.851l2.14-6.488L0,7.224l6.832.03L9.088.806,11.17,7.312,18,7.466l-5.545,3.991Z" transform="translate(451 2196.194)" fill="#ff7373"/>
          <path id="star-3" data-name="star" d="M14.421,18,8.911,13.96,3.3,17.851l2.14-6.488L0,7.224l6.832.03L9.088.806,11.17,7.312,18,7.466l-5.545,3.991Z" transform="translate(428 2196.194)" fill="#ff7373"/>
          <path id="star-4" data-name="star" d="M14.421,18,8.911,13.96,3.3,17.851l2.14-6.488L0,7.224l6.832.03L9.088.806,11.17,7.312,18,7.466l-5.545,3.991Z" transform="translate(474 2196.194)" fill="#ff7373"/>
          <path id="star-5" data-name="star" d="M14.421,18,8.911,13.96,3.3,17.851l2.14-6.488L0,7.224l6.832.03L9.088.806,11.17,7.312,18,7.466l-5.545,3.991Z" transform="translate(497 2196.194)" fill="#ff7373"/>
        </g>
      </g>
    </g>
    <g id="_02" data-name="02">
      <g id="text-2" data-name="text">
        <text id="Modern_Black_Blouse-2" data-name="Modern Black Blouse" transform="translate(719 1939)" fill="#23262a" font-size="16" font-family="Poppins-SemiBold, Poppins" font-weight="600" letter-spacing="0.1em"><tspan x="0" y="0">Modern Black Blouse</tspan></text>
        <text id="Category-2" data-name="Category" transform="translate(782 1913)" fill="#616365" font-size="13" font-family="Poppins-Medium, Poppins" font-weight="500" letter-spacing="0.1em"><tspan x="0" y="0">Category</tspan></text>
        <g id="Group_10" data-name="Group 10" transform="translate(52 -246)">
          <text id="_35.00-2" data-name="$35.00" transform="translate(694 2241)" fill="#616365" font-size="16" font-family="Poppins-Regular, Poppins" letter-spacing="0.1em" text-decoration="line-through"><tspan x="0" y="0">$35.00</tspan></text>
          <text id="_30.00" data-name="$30.00" transform="translate(765 2242)" fill="#23262a" font-size="18" font-family="Poppins-SemiBold, Poppins" font-weight="600" letter-spacing="0.1em"><tspan x="0" y="0">$30.00</tspan></text>
        </g>
        <g id="Group_3" data-name="Group 3" transform="translate(72 -246)">
          <path id="star-6" data-name="star" d="M14.421,18,8.911,13.96,3.3,17.851l2.14-6.488L0,7.224l6.832.03L9.088.806,11.17,7.312,18,7.466l-5.545,3.991Z" transform="translate(690 2196.194)" fill="#ff7373"/>
          <path id="star-7" data-name="star" d="M14.421,18,8.911,13.96,3.3,17.851l2.14-6.488L0,7.224l6.832.03L9.088.806,11.17,7.312,18,7.466l-5.545,3.991Z" transform="translate(736 2196.194)" fill="#ff7373"/>
          <path id="star-8" data-name="star" d="M14.421,18,8.911,13.96,3.3,17.851l2.14-6.488L0,7.224l6.832.03L9.088.806,11.17,7.312,18,7.466l-5.545,3.991Z" transform="translate(713 2196.194)" fill="#ff7373"/>
          <path id="star-9" data-name="star" d="M14.421,18,8.911,13.96,3.3,17.851l2.14-6.488L0,7.224l6.832.03L9.088.806,11.17,7.312,18,7.466l-5.545,3.991Z" transform="translate(759 2196.194)" fill="#ff7373"/>
          <path id="star-10" data-name="star" d="M14.421,18,8.911,13.96,3.3,17.851l2.14-6.488L0,7.224l6.832.03L9.088.806,11.17,7.312,18,7.466l-5.545,3.991Z" transform="translate(782 2196.194)" fill="#ff7373"/>
        </g>
      </g>
      <g id="img-2" data-name="img">
        <rect id="bg-2" data-name="bg" width="255" height="210" transform="translate(690 1679)" fill="#f7f8fa"/>
        <rect id="overlay" width="255" height="210" transform="translate(690 1679)" fill="#23262a" opacity="0.2"/>
      </g>
      <g id="btn">
        <rect id="Rectangle_2" data-name="Rectangle 2" width="255" height="50" transform="translate(690 1839)" fill="#ff7373"/>
        <path id="Union_1" data-name="Union 1" d="M18,20H0V18H18V0h2V20Z" transform="translate(915 1859)" fill="#fff"/>
        <path id="Union_2" data-name="Union 2" d="M18,20H0V18H18V0h2V20Z" transform="translate(720 1869) rotate(180)" fill="#fff"/>
        <text id="QUICK_VIEW" data-name="QUICK VIEW" transform="translate(771 1869)" fill="#fff" font-size="14" font-family="Poppins-Regular, Poppins" letter-spacing="0.1em"><tspan x="0" y="0">QUICK VIEW</tspan></text>
      </g>
      <g id="icon">
        <g id="Group_463" data-name="Group 463">
          <g transform="matrix(1, 0, 0, 1, 405, 1628)" filter="url(#Ellipse_5)">
            <circle id="Ellipse_5-2" data-name="Ellipse 5" cx="18" cy="18" r="18" transform="translate(494 61)" fill="#23262a"/>
          </g>
          <path id="heart" d="M15.93,2.778a4.5,4.5,0,0,0-6.366,0l-.545.552-.541-.551,0,0a4.5,4.5,0,0,0-6.364,0l-.243.243a4.5,4.5,0,0,0,0,6.364L8.279,15.8,9,16.554l.017-.017.019.019.678-.716,6.456-6.455a4.505,4.505,0,0,0,0-6.364Zm-.553,5.811L9.02,14.947,2.663,8.589a3.375,3.375,0,0,1,0-4.773l.243-.243a3.375,3.375,0,0,1,4.771,0L9.016,4.935l1.346-1.362a3.375,3.375,0,0,1,4.773,0l.243.243a3.379,3.379,0,0,1,0,4.773Z" transform="translate(908.451 1698.541)" fill="#fff"/>
        </g>
        <g id="Group_464" data-name="Group 464">
          <g transform="matrix(1, 0, 0, 1, 405, 1628)" filter="url(#Ellipse_6)">
            <circle id="Ellipse_6-2" data-name="Ellipse 6" cx="18" cy="18" r="18" transform="translate(494 107)" fill="#fff"/>
          </g>
          <g id="git-compare-outline" transform="translate(907.75 1743.875)">
            <path id="Path_1" data-name="Path 1" d="M10.688,5.625l-2.25-2.25,2.25-2.25" fill="none" stroke="#000" stroke-linecap="round" stroke-linejoin="round" stroke-width="1.125"/>
            <path id="Path_2" data-name="Path 2" d="M7.277,12.375l2.25,2.25-2.25,2.25" fill="none" stroke="#000" stroke-linecap="round" stroke-linejoin="round" stroke-width="1.125"/>
            <path id="Path_3" data-name="Path 3" d="M5.625,3.375a1.688,1.688,0,1,1-3.375,0,1.688,1.688,0,0,1,3.375,0Z" fill="none" stroke="#000" stroke-linecap="round" stroke-linejoin="round" stroke-width="1.125"/>
            <path id="Path_4" data-name="Path 4" d="M15.75,14.625a1.688,1.688,0,1,1-1.688-1.647,1.688,1.688,0,0,1,1.688,1.647Z" fill="none" stroke="#000" stroke-linecap="round" stroke-linejoin="round" stroke-width="1.125"/>
            <path id="Path_5" data-name="Path 5" d="M9,3.375h2.953a2.109,2.109,0,0,1,2.109,2.109v7.453" fill="none" stroke="#000" stroke-linecap="round" stroke-linejoin="round" stroke-width="1.125"/>
            <path id="Path_6" data-name="Path 6" d="M8.965,14.625H6.012A2.109,2.109,0,0,1,3.9,12.516V5.063" fill="none" stroke="#000" stroke-linecap="round" stroke-linejoin="round" stroke-width="1.125"/>
          </g>
        </g>
        <g id="Group_465" data-name="Group 465">
          <g transform="matrix(1, 0, 0, 1, 405, 1628)" filter="url(#Ellipse_8)">
            <circle id="Ellipse_8-2" data-name="Ellipse 8" cx="18" cy="18" r="18" transform="translate(494 153)" fill="#fff"/>
          </g>
          <path id="shopping-bag-line" d="M12.5,6V4.525a3.5,3.5,0,1,0-7,0v3.5a.5.5,0,0,0,1,0V7h4V6h-4V4.525a2.5,2.5,0,0,1,5,0V8a.5.5,0,0,0,1,0V7H15v9H3V7H4.5V6H2V16.045A.955.955,0,0,0,2.955,17h12.09A.955.955,0,0,0,16,16.045V6Z" transform="translate(908 1789.975)"/>
        </g>
      </g>
    </g>
    <g id="_03" data-name="03">
      <g id="img-3" data-name="img">
        <rect id="bg-3" data-name="bg" width="255" height="210" transform="translate(975 1679)" fill="#f5f5f5"/>
      </g>
      <g id="text-3" data-name="text">
        <text id="Modern_Black_Blouse-3" data-name="Modern Black Blouse" transform="translate(1004 1939)" fill="#23262a" font-size="16" font-family="Poppins-SemiBold, Poppins" font-weight="600" letter-spacing="0.1em"><tspan x="0" y="0">Modern Black Blouse</tspan></text>
        <text id="Category-3" data-name="Category" transform="translate(1067 1913)" fill="#616365" font-size="13" font-family="Poppins-Medium, Poppins" font-weight="500" letter-spacing="0.1em"><tspan x="0" y="0">Category</tspan></text>
        <text id="_35.00-3" data-name="$35.00" transform="translate(1067 1996)" fill="#23262a" font-size="18" font-family="Poppins-SemiBold, Poppins" font-weight="600" letter-spacing="0.1em"><tspan x="0" y="0">$35.00</tspan></text>
        <g id="Group_4" data-name="Group 4" transform="translate(72 -246)">
          <path id="star-11" data-name="star" d="M14.421,18,8.911,13.96,3.3,17.851l2.14-6.488L0,7.224l6.832.03L9.088.806,11.17,7.312,18,7.466l-5.545,3.991Z" transform="translate(975 2196.194)" fill="#ff7373"/>
          <path id="star-12" data-name="star" d="M14.421,18,8.911,13.96,3.3,17.851l2.14-6.488L0,7.224l6.832.03L9.088.806,11.17,7.312,18,7.466l-5.545,3.991Z" transform="translate(1021 2196.194)" fill="#ff7373"/>
          <path id="star-13" data-name="star" d="M14.421,18,8.911,13.96,3.3,17.851l2.14-6.488L0,7.224l6.832.03L9.088.806,11.17,7.312,18,7.466l-5.545,3.991Z" transform="translate(998 2196.194)" fill="#ff7373"/>
          <path id="star-14" data-name="star" d="M14.421,18,8.911,13.96,3.3,17.851l2.14-6.488L0,7.224l6.832.03L9.088.806,11.17,7.312,18,7.466l-5.545,3.991Z" transform="translate(1044 2196.194)" fill="#ff7373"/>
          <path id="star-15" data-name="star" d="M14.421,18,8.911,13.96,3.3,17.851l2.14-6.488L0,7.224l6.832.03L9.088.806,11.17,7.312,18,7.466l-5.545,3.991Z" transform="translate(1067 2196.194)" fill="#ff7373"/>
        </g>
      </g>
    </g>
    <g id="_04" data-name="04">
      <g id="img-4" data-name="img">
        <rect id="bg-4" data-name="bg" width="255" height="210" transform="translate(1260 1679)" fill="#f5f5f5"/>
      </g>
      <g id="text-4" data-name="text">
        <text id="Modern_Black_Blouse-4" data-name="Modern Black Blouse" transform="translate(1289 1939)" fill="#23262a" font-size="16" font-family="Poppins-SemiBold, Poppins" font-weight="600" letter-spacing="0.1em"><tspan x="0" y="0">Modern Black Blouse</tspan></text>
        <text id="Category-4" data-name="Category" transform="translate(1352 1913)" fill="#616365" font-size="13" font-family="Poppins-Medium, Poppins" font-weight="500" letter-spacing="0.1em"><tspan x="0" y="0">Category</tspan></text>
        <text id="_35.00-4" data-name="$35.00" transform="translate(1352 1996)" fill="#23262a" font-size="18" font-family="Poppins-SemiBold, Poppins" font-weight="600" letter-spacing="0.1em"><tspan x="0" y="0">$35.00</tspan></text>
        <g id="Group_5" data-name="Group 5" transform="translate(72 -246)">
          <path id="star-16" data-name="star" d="M14.421,18,8.911,13.96,3.3,17.851l2.14-6.488L0,7.224l6.832.03L9.088.806,11.17,7.312,18,7.466l-5.545,3.991Z" transform="translate(1260 2196.194)" fill="#ff7373"/>
          <path id="star-17" data-name="star" d="M14.421,18,8.911,13.96,3.3,17.851l2.14-6.488L0,7.224l6.832.03L9.088.806,11.17,7.312,18,7.466l-5.545,3.991Z" transform="translate(1306 2196.194)" fill="#ff7373"/>
          <path id="star-18" data-name="star" d="M14.421,18,8.911,13.96,3.3,17.851l2.14-6.488L0,7.224l6.832.03L9.088.806,11.17,7.312,18,7.466l-5.545,3.991Z" transform="translate(1283 2196.194)" fill="#ff7373"/>
          <path id="star-19" data-name="star" d="M14.421,18,8.911,13.96,3.3,17.851l2.14-6.488L0,7.224l6.832.03L9.088.806,11.17,7.312,18,7.466l-5.545,3.991Z" transform="translate(1329 2196.194)" fill="#ff7373"/>
          <path id="star-20" data-name="star" d="M14.421,18,8.911,13.96,3.3,17.851l2.14-6.488L0,7.224l6.832.03L9.088.806,11.17,7.312,18,7.466l-5.545,3.991Z" transform="translate(1352 2196.194)" fill="#ff7373"/>
        </g>
      </g>
    </g>
    <g id="_05" data-name="05">
      <g id="img-5" data-name="img">
        <rect id="bg-5" data-name="bg" width="255" height="210" transform="translate(405 2025)" fill="#f5f5f5"/>
      </g>
      <g id="text-5" data-name="text">
        <text id="Modern_Black_Blouse-5" data-name="Modern Black Blouse" transform="translate(434 2285)" fill="#23262a" font-size="16" font-family="Poppins-SemiBold, Poppins" font-weight="600" letter-spacing="0.1em"><tspan x="0" y="0">Modern Black Blouse</tspan></text>
        <text id="Category-5" data-name="Category" transform="translate(497 2259)" fill="#616365" font-size="13" font-family="Poppins-Medium, Poppins" font-weight="500" letter-spacing="0.1em"><tspan x="0" y="0">Category</tspan></text>
        <g id="Group_12" data-name="Group 12" transform="translate(57 -246)">
          <text id="_35.00-5" data-name="$35.00" transform="translate(404 2587)" fill="#616365" font-size="16" font-family="Poppins-Regular, Poppins" letter-spacing="0.1em" text-decoration="line-through"><tspan x="0" y="0">$35.00</tspan></text>
          <text id="_30.00-2" data-name="$30.00" transform="translate(475 2588)" fill="#23262a" font-size="18" font-family="Poppins-SemiBold, Poppins" font-weight="600" letter-spacing="0.1em"><tspan x="0" y="0">$30.00</tspan></text>
        </g>
        <g id="Group_9" data-name="Group 9" transform="translate(72 -246)">
          <path id="star-21" data-name="star" d="M14.421,18,8.911,13.96,3.3,17.851l2.14-6.488L0,7.224l6.832.03L9.088.806,11.17,7.312,18,7.466l-5.545,3.991Z" transform="translate(405 2542.194)" fill="#ff7373"/>
          <path id="star-22" data-name="star" d="M14.421,18,8.911,13.96,3.3,17.851l2.14-6.488L0,7.224l6.832.03L9.088.806,11.17,7.312,18,7.466l-5.545,3.991Z" transform="translate(451 2542.194)" fill="#ff7373"/>
          <path id="star-23" data-name="star" d="M14.421,18,8.911,13.96,3.3,17.851l2.14-6.488L0,7.224l6.832.03L9.088.806,11.17,7.312,18,7.466l-5.545,3.991Z" transform="translate(428 2542.194)" fill="#ff7373"/>
          <path id="star-24" data-name="star" d="M14.421,18,8.911,13.96,3.3,17.851l2.14-6.488L0,7.224l6.832.03L9.088.806,11.17,7.312,18,7.466l-5.545,3.991Z" transform="translate(474 2542.194)" fill="#ff7373"/>
          <path id="star-25" data-name="star" d="M14.421,18,8.911,13.96,3.3,17.851l2.14-6.488L0,7.224l6.832.03L9.088.806,11.17,7.312,18,7.466l-5.545,3.991Z" transform="translate(497 2542.194)" fill="#ff7373"/>
        </g>
      </g>
    </g>
    <g id="_06" data-name="06">
      <g id="img-6" data-name="img">
        <rect id="bg-6" data-name="bg" width="255" height="210" transform="translate(690 2025)" fill="#f5f5f5"/>
      </g>
      <g id="text-6" data-name="text">
        <text id="Modern_Black_Blouse-6" data-name="Modern Black Blouse" transform="translate(719 2285)" fill="#23262a" font-size="16" font-family="Poppins-SemiBold, Poppins" font-weight="600" letter-spacing="0.1em"><tspan x="0" y="0">Modern Black Blouse</tspan></text>
        <text id="Category-6" data-name="Category" transform="translate(782 2259)" fill="#616365" font-size="13" font-family="Poppins-Medium, Poppins" font-weight="500" letter-spacing="0.1em"><tspan x="0" y="0">Category</tspan></text>
        <text id="_35.00-6" data-name="$35.00" transform="translate(782 2342)" fill="#23262a" font-size="18" font-family="Poppins-SemiBold, Poppins" font-weight="600" letter-spacing="0.1em"><tspan x="0" y="0">$35.00</tspan></text>
        <g id="Group_8" data-name="Group 8" transform="translate(72 -246)">
          <path id="star-26" data-name="star" d="M14.421,18,8.911,13.96,3.3,17.851l2.14-6.488L0,7.224l6.832.03L9.088.806,11.17,7.312,18,7.466l-5.545,3.991Z" transform="translate(690 2542.194)" fill="#ff7373"/>
          <path id="star-27" data-name="star" d="M14.421,18,8.911,13.96,3.3,17.851l2.14-6.488L0,7.224l6.832.03L9.088.806,11.17,7.312,18,7.466l-5.545,3.991Z" transform="translate(736 2542.194)" fill="#ff7373"/>
          <path id="star-28" data-name="star" d="M14.421,18,8.911,13.96,3.3,17.851l2.14-6.488L0,7.224l6.832.03L9.088.806,11.17,7.312,18,7.466l-5.545,3.991Z" transform="translate(713 2542.194)" fill="#ff7373"/>
          <path id="star-29" data-name="star" d="M14.421,18,8.911,13.96,3.3,17.851l2.14-6.488L0,7.224l6.832.03L9.088.806,11.17,7.312,18,7.466l-5.545,3.991Z" transform="translate(759 2542.194)" fill="#ff7373"/>
          <path id="star-30" data-name="star" d="M14.421,18,8.911,13.96,3.3,17.851l2.14-6.488L0,7.224l6.832.03L9.088.806,11.17,7.312,18,7.466l-5.545,3.991Z" transform="translate(782 2542.194)" fill="#ff7373"/>
        </g>
      </g>
    </g>
    <g id="_07" data-name="07">
      <g id="img-7" data-name="img">
        <rect id="bg-7" data-name="bg" width="255" height="210" transform="translate(975 2025)" fill="#f5f5f5"/>
      </g>
      <g id="text-7" data-name="text">
        <text id="Modern_Black_Blouse-7" data-name="Modern Black Blouse" transform="translate(1004 2285)" fill="#23262a" font-size="16" font-family="Poppins-SemiBold, Poppins" font-weight="600" letter-spacing="0.1em"><tspan x="0" y="0">Modern Black Blouse</tspan></text>
        <text id="Category-7" data-name="Category" transform="translate(1067 2259)" fill="#616365" font-size="13" font-family="Poppins-Medium, Poppins" font-weight="500" letter-spacing="0.1em"><tspan x="0" y="0">Category</tspan></text>
        <text id="_35.00-7" data-name="$35.00" transform="translate(1067 2342)" fill="#23262a" font-size="18" font-family="Poppins-SemiBold, Poppins" font-weight="600" letter-spacing="0.1em"><tspan x="0" y="0">$35.00</tspan></text>
        <g id="Group_7" data-name="Group 7" transform="translate(72 -246)">
          <path id="star-31" data-name="star" d="M14.421,18,8.911,13.96,3.3,17.851l2.14-6.488L0,7.224l6.832.03L9.088.806,11.17,7.312,18,7.466l-5.545,3.991Z" transform="translate(975 2542.194)" fill="#ff7373"/>
          <path id="star-32" data-name="star" d="M14.421,18,8.911,13.96,3.3,17.851l2.14-6.488L0,7.224l6.832.03L9.088.806,11.17,7.312,18,7.466l-5.545,3.991Z" transform="translate(1021 2542.194)" fill="#ff7373"/>
          <path id="star-33" data-name="star" d="M14.421,18,8.911,13.96,3.3,17.851l2.14-6.488L0,7.224l6.832.03L9.088.806,11.17,7.312,18,7.466l-5.545,3.991Z" transform="translate(998 2542.194)" fill="#ff7373"/>
          <path id="star-34" data-name="star" d="M14.421,18,8.911,13.96,3.3,17.851l2.14-6.488L0,7.224l6.832.03L9.088.806,11.17,7.312,18,7.466l-5.545,3.991Z" transform="translate(1044 2542.194)" fill="#ff7373"/>
          <path id="star-35" data-name="star" d="M14.421,18,8.911,13.96,3.3,17.851l2.14-6.488L0,7.224l6.832.03L9.088.806,11.17,7.312,18,7.466l-5.545,3.991Z" transform="translate(1067 2542.194)" fill="#ff7373"/>
        </g>
      </g>
    </g>
    <g id="_08" data-name="08">
      <g id="img-8" data-name="img">
        <rect id="bg-8" data-name="bg" width="255" height="210" transform="translate(1260 2025)" fill="#f5f5f5"/>
      </g>
      <g id="text-8" data-name="text">
        <text id="Modern_Black_Blouse-8" data-name="Modern Black Blouse" transform="translate(1289 2285)" fill="#23262a" font-size="16" font-family="Poppins-SemiBold, Poppins" font-weight="600" letter-spacing="0.1em"><tspan x="0" y="0">Modern Black Blouse</tspan></text>
        <text id="Category-8" data-name="Category" transform="translate(1353 2259)" fill="#616365" font-size="13" font-family="Poppins-Medium, Poppins" font-weight="500" letter-spacing="0.1em"><tspan x="0" y="0">Category</tspan></text>
        <text id="_35.00-8" data-name="$35.00" transform="translate(1352 2342)" fill="#23262a" font-size="18" font-family="Poppins-SemiBold, Poppins" font-weight="600" letter-spacing="0.1em"><tspan x="0" y="0">$35.00</tspan></text>
        <g id="Group_403" data-name="Group 403" transform="translate(358 -246)">
          <path id="star-36" data-name="star" d="M14.421,18,8.911,13.96,3.3,17.851l2.14-6.488L0,7.224l6.832.03L9.088.806,11.17,7.312,18,7.466l-5.545,3.991Z" transform="translate(975 2542.194)" fill="#ff7373"/>
          <path id="star-37" data-name="star" d="M14.421,18,8.911,13.96,3.3,17.851l2.14-6.488L0,7.224l6.832.03L9.088.806,11.17,7.312,18,7.466l-5.545,3.991Z" transform="translate(1021 2542.194)" fill="#ff7373"/>
          <path id="star-38" data-name="star" d="M14.421,18,8.911,13.96,3.3,17.851l2.14-6.488L0,7.224l6.832.03L9.088.806,11.17,7.312,18,7.466l-5.545,3.991Z" transform="translate(998 2542.194)" fill="#ff7373"/>
          <path id="star-39" data-name="star" d="M14.421,18,8.911,13.96,3.3,17.851l2.14-6.488L0,7.224l6.832.03L9.088.806,11.17,7.312,18,7.466l-5.545,3.991Z" transform="translate(1044 2542.194)" fill="#ff7373"/>
          <path id="star-40" data-name="star" d="M14.421,18,8.911,13.96,3.3,17.851l2.14-6.488L0,7.224l6.832.03L9.088.806,11.17,7.312,18,7.466l-5.545,3.991Z" transform="translate(1067 2542.194)" fill="#ff7373"/>
        </g>
      </g>
    </g>
    <g id="text-9" data-name="text">
      <text id="Featured_Product-2" data-name="Featured Product" transform="translate(871 1649)" fill="#222529" font-size="20" font-family="Poppins-Bold, Poppins" font-weight="700"><tspan x="0" y="0">Featured Product</tspan></text>
    </g>
  </g>
</svg>
