<svg xmlns="http://www.w3.org/2000/svg" width="1920" height="110" viewBox="0 0 1920 110">
  <g id="footer" transform="translate(0 -6336)">
    <path id="bg" d="M0,0H1920V110H0Z" transform="translate(0 6336)" fill="#f8f8f8"/>
    <g id="footer_botom" data-name="footer botom" transform="translate(0 6336)">
      <rect id="Rectangle_82" data-name="Rectangle 82" width="1920" height="1" fill="#616365" opacity="0.4"/>
      <text id="_2022_Fixxo._All_Rights_Reserved" data-name="© 2022 Fixxo. All Rights Reserved" transform="translate(960 80)" fill="#616365" font-size="16" font-family="Poppins-Regular, Poppins"><tspan x="-126.88" y="0">© 2022 Fixxo. All Rights Reserved</tspan></text>
    </g>
    <g id="social" transform="translate(882.052 6361)">
      <path id="Icon_awesome-facebook-f" data-name="Icon awesome-facebook-f" d="M9.814,10.125l.5-3.258H7.188V4.753a1.629,1.629,0,0,1,1.837-1.76h1.421V.22A17.329,17.329,0,0,0,7.923,0C5.349,0,3.666,1.56,3.666,4.385V6.867H.8v3.258H3.666V18H7.188V10.125Z" transform="translate(-0.805)"/>
      <g id="Icon_feather-instagram" data-name="Icon feather-instagram" transform="translate(30.005 1.5)">
        <path id="Path_76" data-name="Path 76" d="M5.25,1.5h7.5A3.75,3.75,0,0,1,16.5,5.25v7.5a3.75,3.75,0,0,1-3.75,3.75H5.25A3.75,3.75,0,0,1,1.5,12.75V5.25A3.75,3.75,0,0,1,5.25,1.5Z" transform="translate(-1.5 -1.5)" fill="none" stroke="#000" stroke-linecap="round" stroke-linejoin="round" stroke-width="1.5"/>
        <path id="Path_77" data-name="Path 77" d="M12,8.528A3,3,0,1,1,9.472,6,3,3,0,0,1,12,8.528Z" transform="translate(-1.5 -1.5)" fill="none" stroke="#000" stroke-linecap="round" stroke-linejoin="round" stroke-width="1.5"/>
        <path id="Path_78" data-name="Path 78" d="M13.125,4.875h0" transform="translate(-1.5 -1.5)" fill="none" stroke="#000" stroke-linecap="round" stroke-linejoin="round" stroke-width="1.5"/>
      </g>
      <path id="Icon_awesome-twitter" data-name="Icon awesome-twitter" d="M16.15,5.334c.011.16.011.32.011.48a10.424,10.424,0,0,1-10.5,10.5A10.425,10.425,0,0,1,0,14.654a7.632,7.632,0,0,0,.891.046,7.388,7.388,0,0,0,4.58-1.576,3.7,3.7,0,0,1-3.449-2.558,4.652,4.652,0,0,0,.7.057,3.9,3.9,0,0,0,.971-.126A3.69,3.69,0,0,1,.731,6.876V6.83A3.715,3.715,0,0,0,2.4,7.3,3.695,3.695,0,0,1,1.256,2.364a10.486,10.486,0,0,0,7.607,3.86,4.165,4.165,0,0,1-.091-.845,3.693,3.693,0,0,1,6.385-2.524A7.263,7.263,0,0,0,17.5,1.964,3.679,3.679,0,0,1,15.876,4,7.4,7.4,0,0,0,18,3.426a7.93,7.93,0,0,1-1.85,1.907Z" transform="translate(65)"/>
      <path id="Icon_awesome-google" data-name="Icon awesome-google" d="M17.156,9.2a8.1,8.1,0,0,1-8.437,8.515,8.719,8.719,0,0,1,0-17.437,8.385,8.385,0,0,1,5.846,2.282L12.192,4.845C9.088,1.849,3.315,4.1,3.315,9a5.461,5.461,0,0,0,5.4,5.505,4.715,4.715,0,0,0,4.95-3.758H8.719v-3h8.3A7.643,7.643,0,0,1,17.156,9.2Z" transform="translate(102.995)"/>
      <path id="Icon_awesome-linkedin" data-name="Icon awesome-linkedin" d="M14.625,1.125H1.121A1.13,1.13,0,0,0,0,2.261V15.739a1.13,1.13,0,0,0,1.121,1.136h13.5a1.133,1.133,0,0,0,1.125-1.136V2.261A1.133,1.133,0,0,0,14.625,1.125ZM4.76,14.625H2.426V7.109H4.764v7.516ZM3.593,6.082A1.354,1.354,0,1,1,4.946,4.729,1.354,1.354,0,0,1,3.593,6.082Zm9.918,8.543H11.176V10.969c0-.872-.018-1.993-1.213-1.993-1.216,0-1.4.949-1.4,1.93v3.72H6.226V7.109H8.466V8.135H8.5a2.459,2.459,0,0,1,2.211-1.213c2.363,0,2.8,1.557,2.8,3.582Z" transform="translate(140.146)"/>
    </g>
  </g>
</svg>
