<svg xmlns="http://www.w3.org/2000/svg" xmlns:xlink="http://www.w3.org/1999/xlink" width="1110" height="247" viewBox="0 0 1110 247">
  <defs>
    <filter id="bg" x="938" y="57" width="90" height="90" filterUnits="userSpaceOnUse">
      <feOffset dy="6" input="SourceAlpha"/>
      <feGaussianBlur stdDeviation="5" result="blur"/>
      <feFlood flood-opacity="0.161"/>
      <feComposite operator="in" in2="blur"/>
      <feComposite in="SourceGraphic"/>
    </filter>
    <filter id="bg-2" x="653" y="57" width="90" height="90" filterUnits="userSpaceOnUse">
      <feOffset dy="6" input="SourceAlpha"/>
      <feGaussianBlur stdDeviation="5" result="blur-2"/>
      <feFlood flood-opacity="0.161"/>
      <feComposite operator="in" in2="blur-2"/>
      <feComposite in="SourceGraphic"/>
    </filter>
    <filter id="bg-3" x="368" y="57" width="90" height="90" filterUnits="userSpaceOnUse">
      <feOffset dy="6" input="SourceAlpha"/>
      <feGaussianBlur stdDeviation="5" result="blur-3"/>
      <feFlood flood-opacity="0.161"/>
      <feComposite operator="in" in2="blur-3"/>
      <feComposite in="SourceGraphic"/>
    </filter>
    <filter id="bg-4" x="83" y="57" width="90" height="90" filterUnits="userSpaceOnUse">
      <feOffset dy="6" input="SourceAlpha"/>
      <feGaussianBlur stdDeviation="5" result="blur-4"/>
      <feFlood flood-opacity="0.161"/>
      <feComposite operator="in" in2="blur-4"/>
      <feComposite in="SourceGraphic"/>
    </filter>
  </defs>
  <g id="Support" transform="translate(-405 -3682)">
    <rect id="Rectangle_36" data-name="Rectangle 36" width="1110" height="1" transform="translate(405 3682)" fill="#616365" opacity="0.4"/>
    <g id="_04" data-name="04">
      <g id="icon" transform="translate(48 986)">
        <g transform="matrix(1, 0, 0, 1, 357, 2696)" filter="url(#bg)">
          <circle id="bg-5" data-name="bg" cx="30" cy="30" r="30" transform="translate(953 66)" fill="#fff"/>
        </g>
        <path id="delivery-truck" d="M32.731,19.807l-3.215-7.5a1.071,1.071,0,0,0-.985-.654H25.316V9.509a1.071,1.071,0,0,0-1.071-1.071H3.884A1.071,1.071,0,0,0,2.813,9.509V27.726A1.071,1.071,0,0,0,3.884,28.8H6.177a4.286,4.286,0,0,0,8.272,0h6.729a4.286,4.286,0,0,0,8.272,0h2.294a1.071,1.071,0,0,0,1.071-1.071v-7.5a1.071,1.071,0,0,0-.086-.418ZM25.316,13.8h2.508l2.293,5.358h-4.8Zm-15,16.074a2.144,2.144,0,1,1,2.144-2.144,2.144,2.144,0,0,1-2.144,2.144Zm10.866-3.215H14.45a4.286,4.286,0,0,0-8.272,0H4.956V10.581H23.172V24.04a4.286,4.286,0,0,0-1.993,2.614Zm4.137,3.215a2.144,2.144,0,1,1,2.144-2.144A2.144,2.144,0,0,1,25.316,29.87Zm5.358-3.215H29.452a4.286,4.286,0,0,0-4.136-3.215V21.3h5.358Z" transform="translate(1322.187 2771.562)"/>
      </g>
      <g id="text">
        <text id="_30_Day_Reuters" data-name="30 Day Reuters" transform="translate(1388 3855)" fill="#222529" font-size="20" font-family="Poppins-Bold, Poppins" font-weight="700"><tspan x="-76.69" y="0">30 Day Reuters</tspan></text>
        <text id="Village_did_removed_enjoyed_explain_talking." data-name="Village did removed enjoyed explain talking." transform="translate(1260 3880)" fill="#616365" font-size="16" font-family="Poppins-Regular, Poppins"><tspan x="13.004" y="17">Village did removed enjoyed </tspan><tspan x="68.116" y="43">explain talking.</tspan></text>
      </g>
    </g>
    <g id="_03" data-name="03">
      <g id="icon-2" data-name="icon" transform="translate(-237 986)">
        <g transform="matrix(1, 0, 0, 1, 642, 2696)" filter="url(#bg-2)">
          <circle id="bg-6" data-name="bg" cx="30" cy="30" r="30" transform="translate(668 66)" fill="#fff"/>
        </g>
        <path id="delivery-truck-2" data-name="delivery-truck" d="M32.731,19.807l-3.215-7.5a1.071,1.071,0,0,0-.985-.654H25.316V9.509a1.071,1.071,0,0,0-1.071-1.071H3.884A1.071,1.071,0,0,0,2.813,9.509V27.726A1.071,1.071,0,0,0,3.884,28.8H6.177a4.286,4.286,0,0,0,8.272,0h6.729a4.286,4.286,0,0,0,8.272,0h2.294a1.071,1.071,0,0,0,1.071-1.071v-7.5a1.071,1.071,0,0,0-.086-.418ZM25.316,13.8h2.508l2.293,5.358h-4.8Zm-15,16.074a2.144,2.144,0,1,1,2.144-2.144,2.144,2.144,0,0,1-2.144,2.144Zm10.866-3.215H14.45a4.286,4.286,0,0,0-8.272,0H4.956V10.581H23.172V24.04a4.286,4.286,0,0,0-1.993,2.614Zm4.137,3.215a2.144,2.144,0,1,1,2.144-2.144A2.144,2.144,0,0,1,25.316,29.87Zm5.358-3.215H29.452a4.286,4.286,0,0,0-4.136-3.215V21.3h5.358Z" transform="translate(1322.187 2771.562)"/>
      </g>
      <g id="text-2" data-name="text">
        <text id="Free_Home_Delivery" data-name="Free Home Delivery" transform="translate(1103 3855)" fill="#222529" font-size="20" font-family="Poppins-Bold, Poppins" font-weight="700"><tspan x="-99.09" y="0">Free Home Delivery</tspan></text>
        <text id="Village_did_removed_enjoyed_explain_talking.-2" data-name="Village did removed enjoyed explain talking." transform="translate(975 3880)" fill="#616365" font-size="16" font-family="Poppins-Regular, Poppins"><tspan x="13.004" y="17">Village did removed enjoyed </tspan><tspan x="68.116" y="43">explain talking.</tspan></text>
      </g>
    </g>
    <g id="_02" data-name="02">
      <g id="icon-3" data-name="icon" transform="translate(-142 986)">
        <g transform="matrix(1, 0, 0, 1, 547, 2696)" filter="url(#bg-3)">
          <circle id="bg-7" data-name="bg" cx="30" cy="30" r="30" transform="translate(383 66)" fill="#fff"/>
        </g>
        <g id="credit-card_1_" data-name="credit-card (1)" transform="translate(945 2746.996)">
          <g id="Group_20" data-name="Group 20" transform="translate(0 37.629)">
            <g id="Group_19" data-name="Group 19">
              <path id="Path_12" data-name="Path 12" d="M29.064,139.247a.938.938,0,0,0-.938.938v6.563H1.875V135.5H12.188a.938.938,0,1,0,0-1.875H1.875v-3.75H12.188a.938.938,0,0,0,0-1.875H1.875A1.876,1.876,0,0,0,0,129.871v16.876a1.876,1.876,0,0,0,1.875,1.875H28.127A1.876,1.876,0,0,0,30,146.747v-6.563A.938.938,0,0,0,29.064,139.247Z" transform="translate(0 -127.996)"/>
            </g>
          </g>
          <g id="Group_22" data-name="Group 22" transform="translate(3.75 48.88)">
            <g id="Group_21" data-name="Group 21" transform="translate(0 0)">
              <path id="Path_13" data-name="Path 13" d="M68.688,320h-3.75a.938.938,0,0,0,0,1.875h3.75a.938.938,0,0,0,0-1.875Z" transform="translate(-64 -319.996)"/>
            </g>
          </g>
          <g id="Group_24" data-name="Group 24" transform="translate(15.001 32.004)">
            <g id="Group_23" data-name="Group 23" transform="translate(0 0)">
              <path id="Path_14" data-name="Path 14" d="M270.433,34.891l-6.563-2.813a.957.957,0,0,0-.741,0l-6.563,2.813a.94.94,0,0,0-.566.863V39.5c0,5.158,1.907,8.174,7.034,11.127a.943.943,0,0,0,.934,0C269.094,47.685,271,44.67,271,39.5v-3.75A.939.939,0,0,0,270.433,34.891ZM269.126,39.5c0,4.33-1.433,6.713-5.625,9.226-4.193-2.518-5.625-4.9-5.625-9.226V36.373l5.625-2.411,5.625,2.411Z" transform="translate(-256 -32.004)"/>
            </g>
          </g>
          <g id="Group_26" data-name="Group 26" transform="translate(18.752 37.63)">
            <g id="Group_25" data-name="Group 25" transform="translate(0 0)">
              <path id="Path_15" data-name="Path 15" d="M327.16,128.219a.944.944,0,0,0-1.318.146l-2.948,3.686-1.166-1.744a.937.937,0,1,0-1.56,1.039l1.875,2.813a.945.945,0,0,0,.741.418h.039a.938.938,0,0,0,.733-.353l3.75-4.688A.938.938,0,0,0,327.16,128.219Z" transform="translate(-320.011 -128.016)"/>
            </g>
          </g>
        </g>
      </g>
      <g id="text-3" data-name="text">
        <text id="Secured_Payment" data-name="Secured Payment" transform="translate(818 3855)" fill="#222529" font-size="20" font-family="Poppins-Bold, Poppins" font-weight="700"><tspan x="-91.35" y="0">Secured Payment</tspan></text>
        <text id="Village_did_removed_enjoyed_explain_talking.-3" data-name="Village did removed enjoyed explain talking." transform="translate(690 3880)" fill="#616365" font-size="16" font-family="Poppins-Regular, Poppins"><tspan x="13.004" y="17">Village did removed enjoyed </tspan><tspan x="68.116" y="43">explain talking.</tspan></text>
      </g>
    </g>
    <g id="_01" data-name="01">
      <g id="text-4" data-name="text">
        <text id="Village_did_removed_enjoyed_explain_talking.-4" data-name="Village did removed enjoyed explain talking." transform="translate(405 3880)" fill="#616365" font-size="16" font-family="Poppins-Regular, Poppins"><tspan x="13.004" y="17">Village did removed enjoyed </tspan><tspan x="68.116" y="43">explain talking.</tspan></text>
        <text id="Customer_Support" data-name="Customer Support" transform="translate(533 3855)" fill="#222529" font-size="20" font-family="Poppins-Bold, Poppins" font-weight="700"><tspan x="-94.7" y="0">Customer Support</tspan></text>
      </g>
      <g id="icon-4" data-name="icon" transform="translate(-33 986)">
        <g transform="matrix(1, 0, 0, 1, 438, 2696)" filter="url(#bg-4)">
          <circle id="bg-8" data-name="bg" cx="30" cy="30" r="30" transform="translate(98 66)" fill="#fff"/>
        </g>
        <g id="customer-service" transform="translate(550.428 2777)">
          <g id="Group_28" data-name="Group 28" transform="translate(0.572 4.771)">
            <g id="Group_27" data-name="Group 27">
              <path id="Path_16" data-name="Path 16" d="M24.957,101.348l-1.123-3.37a3.4,3.4,0,0,0-2.615-2.267l-3.242-.59v-.251a4.883,4.883,0,0,0,1.446-1.284h.98a1.457,1.457,0,0,0,1.456-1.456V86.307a6.307,6.307,0,0,0-12.615,0v3.4a1.944,1.944,0,0,0,1.547,1.9,4.861,4.861,0,0,0,2.334,3.265v.251l-3.243.59a3.4,3.4,0,0,0-2.614,2.267l-.194.583L5.421,96.908a.486.486,0,0,1,0-.687l1.916-1.916-3.6-3.6L1.575,92.874a3.4,3.4,0,0,0,0,4.8l6.557,6.557a3.395,3.395,0,0,0,4.788.015l2.363-2.165-.737-.736Zm-4.069-9.218a.486.486,0,0,1-.485.485h-.408a4.819,4.819,0,0,0,.316-1.011,1.922,1.922,0,0,0,.577-.229Zm-.485-1.59V88.868a.962.962,0,0,1,0,1.671Zm-9.7,0a.962.962,0,0,1,0-1.671Zm0-3.261v.554a1.925,1.925,0,0,0-.485.2V86.307a5.337,5.337,0,1,1,10.674,0v1.725a1.907,1.907,0,0,0-.485-.2v-.554h-.485a5.338,5.338,0,0,1-3.8-1.573l-.568-.568-.568.568a5.338,5.338,0,0,1-3.8,1.573Zm.97,3.4V88.23a6.29,6.29,0,0,0,3.881-1.724,6.288,6.288,0,0,0,3.881,1.724v2.444a3.852,3.852,0,0,1-.525,1.941H15.551v.97h2.559a3.875,3.875,0,0,1-6.44-2.911ZM17.006,95.3v.023L15.551,96.78,14.1,95.325V95.3a4.848,4.848,0,0,0,2.911,0ZM8.188,98.284a2.427,2.427,0,0,1,1.867-1.62l3.391-.616,2.1,2.1,2.1-2.1,3.391.616a2.426,2.426,0,0,1,1.867,1.62l.7,2.093H13.575l-1.89-1.89-2.1,1.9a.5.5,0,0,1-.686,0l-1.06-1.06ZM3.74,92.08l2.225,2.225-.527.527L3.213,92.607Zm8.508,11.469a2.426,2.426,0,0,1-3.431,0L2.26,96.991a2.426,2.426,0,0,1,0-3.431l.267-.267,2.225,2.225-.017.017a1.458,1.458,0,0,0,0,2.059l3.479,3.479a1.448,1.448,0,0,0,1.03.426,1.429,1.429,0,0,0,1.012-.409l.036-.033,2.235,2.235Zm.995-.912-2.23-2.23.641-.579,2.226,2.226Z" transform="translate(-0.58 -80)"/>
            </g>
          </g>
          <g id="Group_30" data-name="Group 30" transform="translate(20.868)">
            <g id="Group_29" data-name="Group 29">
              <path id="Path_17" data-name="Path 17" d="M343.676,0h-6.792a1.457,1.457,0,0,0-1.456,1.456V5.337a1.457,1.457,0,0,0,1.456,1.456h1.3l-.5,2.926,4.682-2.926h1.316a1.457,1.457,0,0,0,1.456-1.456V1.456A1.457,1.457,0,0,0,343.676,0Zm.485,5.337a.486.486,0,0,1-.485.485h-1.595L339,7.748l.33-1.926h-2.447a.486.486,0,0,1-.485-.485V1.456a.486.486,0,0,1,.485-.485h6.792a.486.486,0,0,1,.485.485Z" transform="translate(-335.428)"/>
            </g>
          </g>
          <g id="Group_32" data-name="Group 32" transform="translate(22.809 1.941)">
            <g id="Group_31" data-name="Group 31">
              <rect id="Rectangle_33" data-name="Rectangle 33" width="5.822" height="0.97"/>
            </g>
          </g>
          <g id="Group_34" data-name="Group 34" transform="translate(22.809 3.881)">
            <g id="Group_33" data-name="Group 33">
              <rect id="Rectangle_34" data-name="Rectangle 34" width="3.881" height="0.97"/>
            </g>
          </g>
          <g id="Group_36" data-name="Group 36" transform="translate(27.661 3.881)">
            <g id="Group_35" data-name="Group 35">
              <rect id="Rectangle_35" data-name="Rectangle 35" width="0.97" height="0.97"/>
            </g>
          </g>
          <g id="Group_38" data-name="Group 38" transform="translate(0.572 1.456)">
            <g id="Group_37" data-name="Group 37">
              <path id="Path_18" data-name="Path 18" d="M15.543,24A13.576,13.576,0,0,0,2.323,34.5L1.4,32.969l-.832.5L2.277,36.31,5.119,34.6l-.5-.832L3.3,34.561a12.618,12.618,0,0,1,15.976-9.028l.287-.927A13.576,13.576,0,0,0,15.543,24Z" transform="translate(-0.572 -24)"/>
            </g>
          </g>
          <g id="Group_40" data-name="Group 40" transform="translate(25.333 8.99)">
            <g id="Group_39" data-name="Group 39">
              <path id="Path_19" data-name="Path 19" d="M414.04,150.721l-2.842-1.705-1.7,2.842.832.5.849-1.415a12.625,12.625,0,0,1-2.138,12.019l.753.611a13.587,13.587,0,0,0,2.325-12.875l1.426.855Z" transform="translate(-409.036 -149.016)"/>
            </g>
          </g>
        </g>
      </g>
    </g>
  </g>
</svg>
